PathFileType	4	(X/Y/Z)	D:\Share\Shared_Data\Ergonomics\Sit To Stand Pertubation\S3\Perturbed.trc
DataRate	CameraRate	NumFrames	NumMarkers	Units	OrigDataRate	OrigDataStartFrame	OrigNumFrames	
100	100	17	18	m	100	8436	221
Frame#	Time	R_ASIS			R_Pelvis			V_Sacral			L_Pelvis			L_ASIS			Clavical			R_Acromium			L_Acromium			Sternum			Torso			R_Thigh_Med			R_Thigh_Lat			R_Thigh			R_Shank_Med			R_Shank_Lat			R_Shank			R_Heel			R_Toe			
		X1	Y1	Z1	X2	Y2	Z2	X3	Y3	Z3	X4	Y4	Z4	X5	Y5	Z5	X6	Y6	Z6	X7	Y7	Z7	X8	Y8	Z8	X9	Y9	Z9	X10	Y10	Z10	X11	Y11	Z11	X12	Y12	Z12	X13	Y13	Z13	X14	Y14	Z14	X15	Y15	Z15	X16	Y16	Z16	X17	Y17	Z17	X18	Y18	Z18	

8436	84.35	-0.008336729	0.64329053	0.1494325	-0.12008489	0.63227777	0.2040063	-0.22762352	0.62981189	0.015173619	-0.11236126	0.64757684	-0.18575887	-0.0030762966	0.6440658	-0.13418852	-0.013712544	1.0390842	-0.0033673859	-0.060602165	1.1010118	0.16997438	-0.056196079	1.0983196	-0.15642996	0.0084493647	0.96375598	0.004163538	-0.0090089083	1.0258385	-0.064763535	0.33128537	0.47201666	0.069571449	0.3194371	0.45435519	0.18771779	0.14969301	0.58011237	0.10900066	0.2946394	0.10647694	0.096926247	0.28316534	0.09466449	0.17832695	0.28449411	0.27373209	0.19936533	0.22433029	0.057910183	0.1391004	0.44060928	0.05659309	0.11827895
8437	84.36	-0.0080979242	0.64329547	0.14962224	-0.11993333	0.63240607	0.2039949	-0.22749797	0.62995203	0.015119358	-0.11225365	0.64760931	-0.18578735	-0.0030605247	0.64403552	-0.1341268	-0.013081873	1.0388835	-0.003437278	-0.059786312	1.1008943	0.16990952	-0.055544498	1.0981802	-0.15648952	0.0089038363	0.96351257	0.0040656919	-0.0085044956	1.0256267	-0.064860909	0.33128955	0.47202673	0.069614609	0.31941251	0.45437427	0.18774289	0.14968851	0.58012201	0.1089762	0.29477838	0.10651007	0.097029831	0.28319644	0.094587532	0.17825249	0.28447159	0.27375504	0.19939525	0.2243347	0.05792181	0.13910802	0.44060696	0.056594646	0.11828553
8438	84.37	-0.0078437438	0.64331696	0.14986571	-0.11978738	0.6325481	0.20399461	-0.22737695	0.63008972	0.015059733	-0.11211818	0.64763428	-0.18582393	-0.0030227168	0.64400043	-0.13404903	-0.0123694	1.0386478	-0.0035136626	-0.058855797	1.1007438	0.16984467	-0.05480949	1.0980249	-0.15654332	0.0094133873	0.9632301	0.0039559584	-0.0079308505	1.0253784	-0.064967079	0.33129263	0.4720408	0.069675323	0.31938663	0.45438959	0.18778629	0.14968271	0.58013123	0.10896515	0.29495059	0.10655334	0.097139931	0.28322678	0.094529968	0.17820198	0.2844556	0.27377563	0.19943596	0.22433925	0.05793219	0.13911574	0.4406051	0.056596241	0.11829199
8439	84.38	-0.0076081042	0.64334698	0.15010704	-0.11965441	0.63270111	0.20400528	-0.22726657	0.6302179	0.01499204	-0.1119641	0.64765277	-0.18587065	-0.0029711733	0.64396216	-0.13395766	-0.011568918	1.0383782	-0.0036001344	-0.05779953	1.1005598	0.16977956	-0.053989052	1.0978547	-0.15659286	0.0099835949	0.96290747	0.0038319168	-0.0072818499	1.0250946	-0.065083298	0.33129251	0.47205951	0.069750877	0.31935941	0.45440131	0.18784607	0.1496736	0.58014069	0.10896951	0.29513834	0.10660499	0.09723455	0.28325934	0.094480675	0.17816357	0.28444733	0.27379282	0.19948689	0.2243436	0.057941662	0.13912338	0.44060376	0.056597733	0.11829824
8440	84.39	-0.0074186821	0.64337689	0.15030302	-0.11954298	0.63285944	0.20402316	-0.22717183	0.63033105	0.014914984	-0.11180335	0.64766534	-0.1859268	-0.0029155712	0.64392401	-0.13385622	-0.010675487	1.0380779	-0.0036991646	-0.056607838	1.100343	0.16971342	-0.053081593	1.0976736	-0.15664098	0.010620319	0.96254431	0.0036926293	-0.0065508761	1.0247769	-0.065210381	0.33128775	0.47208386	0.069838661	0.31932977	0.45440952	0.18792009	0.14965952	0.58015143	0.10899191	0.29531802	0.10666233	0.097292557	0.28329837	0.094421181	0.17811795	0.28444626	0.27380615	0.19954742	0.22434753	0.057950954	0.13913094	0.44060281	0.056598938	0.11830432
8441	84.4	-0.0072882299	0.6434007	0.1504395	-0.11946107	0.63301532	0.20404216	-0.22709569	0.63042578	0.01482978	-0.11164832	0.64767194	-0.18598833	-0.0028647146	0.64388995	-0.13374925	-0.0096852446	1.0377499	-0.0038130639	-0.055272049	1.1000939	0.16964565	-0.052080647	1.0974851	-0.1566906	0.011329257	0.9621394	0.0035378053	-0.0057317076	1.0244268	-0.065348907	0.33127698	0.47211407	0.069936172	0.31929593	0.45441467	0.18800595	0.14963919	0.58016479	0.1090349	0.29547397	0.10672217	0.097306831	0.28334534	0.094343666	0.1780563	0.2844501	0.27381631	0.19961649	0.2243513	0.05796104	0.13913869	0.44060205	0.056599663	0.11831046
8442	84.41	-0.0072167706	0.64341559	0.15052408	-0.11941428	0.63316052	0.20405588	-0.22703932	0.63050287	0.014741013	-0.1115098	0.64767224	-0.18604851	-0.0028249907	0.64386395	-0.13364166	-0.0085954046	1.0373954	-0.003945117	-0.053783852	1.0998129	0.16957596	-0.050972824	1.097293	-0.15674916	0.012116055	0.96169104	0.003367121	-0.0048195305	1.0240447	-0.065498505	0.33125842	0.47214923	0.070041161	0.3192554	0.45441818	0.18810094	0.14961133	0.58018188	0.10910007	0.29560031	0.10678077	0.097283714	0.28339798	0.094252075	0.17798209	0.28445416	0.27382397	0.19969218	0.22435553	0.057972908	0.13914713	0.44060129	0.056599834	0.11831711
8443	84.42	-0.0071964931	0.64342078	0.15057323	-0.11940506	0.63328784	0.20405946	-0.22700262	0.6305672	0.014656531	-0.11139583	0.64766577	-0.18610045	-0.0027999892	0.64384839	-0.13353847	-0.0074036117	1.037012	-0.0040990782	-0.052135132	1.0995001	0.16950443	-0.049740631	1.0970996	-0.15683711	0.012986056	0.96119653	0.0031800382	-0.0038106639	1.0236292	-0.065657188	0.33122949	0.47218658	0.070152008	0.31920459	0.45442218	0.18820221	0.14957419	0.5802038	0.10918764	0.29569391	0.10683425	0.09723175	0.28345236	0.094151184	0.17790016	0.28445166	0.27382993	0.19977159	0.22436095	0.057987137	0.13915681	0.4406001	0.056599674	0.11832449
8444	84.43	-0.0072152953	0.64341699	0.15060335	-0.11943244	0.63339294	0.20405055	-0.2269848	0.63062616	0.014585392	-0.11131135	0.64765338	-0.18613947	-0.0027906685	0.64384326	-0.13344446	-0.0061064801	1.0365956	-0.0042760735	-0.0503176	1.0991554	0.16943176	-0.048363689	1.0969059	-0.15699182	0.01394401	0.96065247	0.0029763854	-0.0027018976	1.0231777	-0.065821632	0.33118719	0.47222266	0.070268188	0.31913907	0.45442899	0.18830713	0.14952544	0.58023029	0.10929621	0.29575168	0.10687966	0.097160545	0.28350388	0.094046387	0.17781557	0.2844353	0.27383487	0.19985106	0.22436783	0.058003555	0.13916801	0.44059842	0.056599571	0.11833251
8445	84.44	-0.007259181	0.64340649	0.15062636	-0.11949241	0.63347491	0.20402914	-0.22698463	0.63068945	0.014535848	-0.11125839	0.6476366	-0.18616397	-0.0027958872	0.64384607	-0.13336371	-0.0046977301	1.0361401	-0.0044699831	-0.048322372	1.0987778	0.16935944	-0.046817844	1.0967112	-0.15726524	0.014994803	0.9600553	0.0027571874	-0.0014897184	1.022687	-0.065987762	0.3311286	0.47225296	0.070391182	0.31905392	0.4544404	0.18841341	0.1494621	0.58026086	0.10942284	0.29577432	0.10691603	0.097085358	0.28354724	0.093949242	0.17773837	0.28439914	0.27383969	0.199927	0.22437601	0.058021286	0.13918045	0.44059616	0.056599907	0.1183408
8446	84.45	-0.0073138733	0.64339209	0.15064836	-0.11957842	0.63353711	0.20399692	-0.22700078	0.63076831	0.014515405	-0.11123649	0.64761786	-0.18617589	-0.0028135219	0.64385321	-0.13329915	-0.0031675646	1.0356367	-0.004666172	-0.046140644	1.0983656	0.16928906	-0.04507719	1.0965134	-0.15771767	0.016144518	0.95940173	0.0025246241	-0.00016964051	1.0221539	-0.066151749	0.3310513	0.47227206	0.070524933	0.31894452	0.45445688	0.18851942	0.14938129	0.58029468	0.10956332	0.29576437	0.10694454	0.097022552	0.2835784	0.093873299	0.17767982	0.2843403	0.27384592	0.19999666	0.22438469	0.05803923	0.13919394	0.44059286	0.05660088	0.11834897
8447	84.46	-0.0073660026	0.64337659	0.15066985	-0.1196817	0.6335871	0.20395671	-0.2270318	0.63087396	0.014530279	-0.11124319	0.64760132	-0.18617961	-0.0028417625	0.64386066	-0.13325232	-0.0015050057	1.0350768	-0.0048479061	-0.043765137	1.0979158	0.16922246	-0.043119316	1.0963077	-0.15840387	0.017400831	0.95868982	0.0022814841	0.0012636751	1.0215757	-0.066310791	0.33095395	0.47227353	0.070675667	0.31880688	0.45447742	0.18862425	0.14928043	0.58033081	0.10971244	0.29572263	0.10696735	0.096983597	0.28359399	0.093828583	0.17764813	0.28425919	0.27385501	0.20005887	0.22439275	0.058056347	0.13920808	0.44058807	0.056602406	0.11835692
8448	84.47	-0.0074043417	0.64336267	0.15068611	-0.11979201	0.63363464	0.20391203	-0.22707599	0.63101526	0.014582336	-0.11127473	0.647591	-0.18618132	-0.0028797133	0.64386548	-0.13322366	0.00029829219	1.0344557	-0.0050059657	-0.041190861	1.0974252	0.16916165	-0.040930832	1.0960863	-0.15934683	0.018772562	0.95791882	0.0020313959	0.0028166029	1.0209496	-0.066462822	0.33083728	0.47225027	0.070851608	0.3186387	0.45449991	0.18872789	0.14915767	0.58036853	0.10986456	0.29564847	0.10698674	0.096975227	0.2835903	0.093821724	0.17764937	0.28415887	0.2738681	0.20011417	0.22439871	0.058071762	0.1392222	0.44058139	0.056604115	0.11836476
8449	84.48	-0.0074214506	0.64335156	0.15068837	-0.11989895	0.63368945	0.20386705	-0.2271311	0.63119525	0.014666065	-0.11132681	0.64759119	-0.18618767	-0.002926971	0.64386572	-0.13321289	0.0022464852	1.0337732	-0.0051425614	-0.03841507	1.0968896	0.16910873	-0.038516521	1.0958345	-0.16049942	0.020268251	0.95708893	0.0017792821	0.0044970875	1.0202711	-0.066605667	0.33070422	0.47219531	0.071061966	0.31844019	0.45452203	0.18883105	0.14901187	0.58040662	0.11001397	0.29554489	0.10700467	0.097000046	0.28356506	0.09385511	0.17768631	0.28404395	0.27388568	0.20016476	0.22440172	0.058084934	0.13923555	0.44057254	0.056605556	0.11837266
8450	84.49	-0.007415246	0.64334198	0.15066475	-0.11999352	0.63375989	0.20382625	-0.22719435	0.63141156	0.014768802	-0.1113953	0.64760583	-0.18620442	-0.0029828377	0.64386053	-0.13321988	0.0043417482	1.0330311	-0.0052671213	-0.035436741	1.0963043	0.16906548	-0.035908623	1.0955331	-0.16172464	0.021894197	0.95620001	0.0015307766	0.0063139482	1.0195355	-0.066737122	0.33055899	0.47210352	0.071313087	0.31821478	0.45454254	0.1889348	0.1488428	0.58044354	0.11015531	0.29542477	0.1070229	0.097055794	0.28351956	0.093925827	0.17775713	0.28391916	0.27390683	0.20021373	0.22440141	0.058095726	0.13924779	0.44056183	0.056606586	0.1183807
8451	84.5	-0.0073900452	0.64332959	0.15060117	-0.12006877	0.6338515	0.20379387	-0.22726297	0.6316579	0.014874946	-0.11147693	0.64763849	-0.18623537	-0.0030462177	0.64384912	-0.13324501	0.0065881991	1.0322285	-0.0053880997	-0.032255947	1.0956642	0.16903288	-0.033154541	1.0951637	-0.16284305	0.023652382	0.95524982	0.0012910042	0.0082758865	1.0187377	-0.066855705	0.33040427	0.47197742	0.071601746	0.31796838	0.45456116	0.18903983	0.14865173	0.58047772	0.11028403	0.29531311	0.10704309	0.097136566	0.28345758	0.09402755	0.17785724	0.28378815	0.27392929	0.20026382	0.22439789	0.058104122	0.13925906	0.44054996	0.056607491	0.11838885
8452	84.51	-0.0073576064	0.64330664	0.15048128	-0.1201198	0.63396637	0.20377309	-0.22733498	0.63192773	0.014972068	-0.11156924	0.64769171	-0.18628192	-0.00311643	0.64383154	-0.13328894	0.0089938507	1.0313615	-0.0055074081	-0.028873209	1.0949642	0.16901085	-0.030285164	1.0947173	-0.16372313	0.025538328	0.95423438	0.0010634772	0.010392005	1.0178715	-0.066960884	0.33023895	0.47183517	0.071907516	0.31770856	0.45457837	0.18914572	0.14844156	0.58050732	0.11039674	0.29524466	0.10706658	0.09723365	0.28338678	0.094149803	0.17797815	0.2836521	0.27394974	0.20031636	0.22439122	0.05810981	0.13926942	0.44053784	0.056608765	0.11839698
